<svg width="24" height="24" viewBox="0 0 24 24" fill="none" xmlns="http://www.w3.org/2000/svg">
<path d="M22.4246 4.3433L20.7942 5.90653C20.725 5.95917 20.6716 6.02972 20.6397 6.11056C20.6077 6.19139 20.5985 6.27942 20.613 6.36511V17.8512C20.5988 17.9367 20.6081 18.0244 20.64 18.105C20.6719 18.1856 20.7253 18.2559 20.7942 18.3085L22.3866 19.8717V20.215H14.3779V19.873L16.0272 18.2705C16.1894 18.1083 16.1894 18.0614 16.1894 17.8144V8.5288L11.6036 20.177H10.9829L5.64204 8.5288V16.3361C5.62007 16.498 5.63523 16.6627 5.68637 16.8179C5.7375 16.9731 5.82328 17.1146 5.9372 17.2317L8.08316 19.8337V20.177H2V19.835L4.14722 17.2317C4.26022 17.1145 4.34408 16.9724 4.39205 16.8168C4.44002 16.6612 4.45075 16.4966 4.42338 16.3361V7.30887C4.43603 7.18521 4.41933 7.06031 4.37465 6.94432C4.32997 6.82832 4.25856 6.72449 4.16622 6.64127L2.25843 4.3433V4.00127H8.17944L12.7564 14.0381L16.7797 4H22.4246V4.3433Z" fill="#1B1F23"/>
</svg>
